<svg xmlns="http://www.w3.org/2000/svg" viewBox="176 101 560 560" fill="none" role="img" aria-label="عروضي">
  <!-- Icon-only mark (no wordmark) cropped from oroudi-logo.svg, for favicon / tight spaces. -->
  <rect x="176" y="101" width="560" height="560" rx="64" fill="white"/>
  <g stroke="black" stroke-width="18" stroke-linecap="round" stroke-linejoin="round">
    <path d="M383 190H604L690 276V566H383V190Z"/>
    <path d="M604 190V276H690" fill="black" stroke="black"/>
    <path d="M457 300C457 279 471 263 492 263V285C482 285 477 291 477 300H497V346H457V300Z" fill="black" stroke="none"/>
    <path d="M524 300C524 279 538 263 559 263V285C549 285 544 291 544 300H564V346H524V300Z" fill="black" stroke="none"/>
    <path d="M470 405H602"/>
    <path d="M470 458H602"/>
    <path d="M533 535L570 572L631 498"/>
    <path d="M260 566V482L352 408V566"/>
    <path d="M352 408V566"/>
    <path d="M352 482L431 532V566"/>
    <path d="M222 566V502L260 482"/>
    <path d="M246 516L278 499"/>
  </g>
</svg>
